<svg xmlns="http://www.w3.org/2000/svg" width="72" height="72" fill="none" viewBox="0 0 72 72"><rect width="64" height="34" x="4" y="19" fill="#fff" fill-opacity=".85"/><rect width="64" height="34" x="4" y="19" fill="url(#paint0_linear_1308_76830)" fill-opacity=".5"/><rect width="63" height="33" x="4.5" y="19.5" stroke="#000" stroke-opacity=".25"/><path stroke="#121A21" stroke-opacity=".9" d="M29.5 31.5C29.5 30.9477 29.9477 30.5 30.5 30.5H41.5C42.0523 30.5 42.5 30.9477 42.5 31.5V40.5C42.5 41.0523 42.0523 41.5 41.5 41.5H30.5C29.9477 41.5 29.5 41.0523 29.5 40.5V31.5Z"/><path fill="#121A21" fill-opacity=".7" d="M38.4148 35.5904C38.6992 35.7894 38.6992 36.2106 38.4148 36.4096L34.7867 38.9493C34.4553 39.1813 34 38.9442 34 38.5397L34 33.4603C34 33.0558 34.4553 32.8187 34.7867 33.0507L38.4148 35.5904Z" opacity=".75"/><defs><linearGradient id="paint0_linear_1308_76830" x1="36" x2="36" y1="19" y2="53" gradientUnits="userSpaceOnUse"><stop stop-color="#fff"/><stop offset="1" stop-color="#fff" stop-opacity="0"/></linearGradient></defs></svg>