<svg xmlns="http://www.w3.org/2000/svg" width="72" height="72" fill="none" viewBox="0 0 72 72"><rect width="36" height="64" x="18" y="4" fill="#fff" fill-opacity=".85"/><rect width="36" height="64" x="18" y="4" fill="url(#paint0_linear_1186_76833)" fill-opacity=".5"/><rect width="35" height="63" x="18.5" y="4.5" stroke="#000" stroke-opacity=".25"/><path fill="#121A21" fill-opacity=".7" fill-rule="evenodd" d="M30 36.0335C30 39.0165 32.1665 41.497 35 42V37.6665H33.5V36H35V34.6665C35 33.1665 35.9665 32.3335 37.3335 32.3335C37.7665 32.3335 38.2335 32.4 38.6665 32.4665V34H37.9C37.1665 34 37 34.3665 37 34.8335V36H38.6L38.3335 37.6665H37V42C39.8335 41.497 42 39.017 42 36.0335C42 32.715 39.3 30 36 30C32.7 30 30 32.715 30 36.0335Z" clip-rule="evenodd"/><defs><linearGradient id="paint0_linear_1186_76833" x1="36" x2="36" y1="4" y2="68" gradientUnits="userSpaceOnUse"><stop stop-color="#fff"/><stop offset="1" stop-color="#fff" stop-opacity="0"/></linearGradient></defs></svg>