<svg xmlns="http://www.w3.org/2000/svg" width="72" height="72" fill="none" viewBox="0 0 72 72"><rect width="38.118" height="54" x="17" y="9" fill="#fff" fill-opacity=".85"/><rect width="38.118" height="54" x="17" y="9" fill="url(#paint0_linear_1146_141495)" fill-opacity=".5"/><rect width="37.118" height="53" x="17.5" y="9.5" stroke="#000" stroke-opacity=".25"/><rect width="11" height="11" x="30.5" y="30.5" stroke="#121A21" stroke-opacity=".9" rx="1"/><path fill="#121A21" fill-opacity=".7" fill-rule="evenodd" d="M41 39.5V40.5C41 40.7746 40.7786 40.9975 40.5046 41H34L37.584 35.624C37.7819 35.3272 38.2181 35.3272 38.416 35.624L41 39.5Z" clip-rule="evenodd" opacity=".75"/><path fill="#121A21" fill-opacity=".9" d="M34 35.5C34.8284 35.5 35.5 34.8284 35.5 34C35.5 33.1716 34.8284 32.5 34 32.5C33.1716 32.5 32.5 33.1716 32.5 34C32.5 34.8284 33.1716 35.5 34 35.5Z" opacity=".75"/><defs><linearGradient id="paint0_linear_1146_141495" x1="36.059" x2="36.059" y1="9" y2="63" gradientUnits="userSpaceOnUse"><stop stop-color="#fff"/><stop offset="1" stop-color="#fff" stop-opacity="0"/></linearGradient></defs></svg>